<?xml version="1.0" encoding="utf-8"?>
<!-- Generator: Adobe Illustrator 23.0.2, SVG Export Plug-In . SVG Version: 6.00 Build 0)  -->
<svg version="1.1" xmlns="http://www.w3.org/2000/svg" xmlns:xlink="http://www.w3.org/1999/xlink" x="0px" y="0px"
	 viewBox="0 0 250 60" style="enable-background:new 0 0 250 60;" xml:space="preserve">
<style type="text/css">
	.st0{fill:#FFFFFF;}
	.st1{fill:none;stroke:#E6007E;stroke-miterlimit:10;}
</style>
<g id="Capa_5">
	<path id="relleno" class="st0" d="M170.1,8.5c0-0.2,0.1-0.3,0.4-0.4c0.3-0.1,0.5-0.2,0.9-0.2c0.6-0.3,1.3-0.5,1.9-0.5
		s1.1,0,1.2,0.2c0.1,0.3,0.4,1.2,0.7,2.6c0.3,1.4,0.7,3,1.1,4.7c0.4,1.8,0.7,3.5,1,5.2s0.5,3,0.6,4c0,0.6,0.2,1.8,0.5,3.4
		s0.7,3.4,1,5.3c0.4,1.6,0.7,3.2,1,4.8s0.6,3,0.7,4.2c0.2,1.3,0.3,2.3,0.4,3.2c0.1,0.9,0.1,1.5,0,1.8c-0.1,0.2-0.3,0.3-0.7,0.5
		c-0.4,0.2-0.8,0.3-1.2,0.5s-0.9,0.2-1.3,0.3c-0.4,0.1-0.7,0-0.8-0.1c-0.2-0.3-0.4-1-0.6-2.1c-0.2-1.1-0.5-2.5-0.6-4.2
		c0-0.6-0.1-1.5-0.4-2.6c-0.2-1.1-0.4-2.1-0.6-3c-0.2-0.9-0.4-1.6-0.6-2.2s-0.4-0.9-0.6-1.1s-0.5-0.4-0.9-0.4s-0.9-0.1-1.6-0.1
		c-0.7,0-1.3,0-1.7,0.1s-0.7,0.2-0.9,0.4s-0.4,0.5-0.5,0.9c-0.1,0.4-0.2,1-0.4,1.8c-0.2,0.9-0.4,2.1-0.6,3.4
		c-0.3,1.3-0.5,2.5-0.6,3.4c-0.3,1.9-0.6,3.1-0.9,3.6c-0.3,0.5-0.7,0.8-1.3,0.8c-0.2,0-0.4,0-0.8,0s-0.6,0-0.8,0
		c-0.8,0.2-1.3,0-1.5-0.4c-0.2-0.4-0.1-1.4,0.2-3c0.1-1.2,0.4-2.6,0.6-4.1c0.2-1.5,0.5-3,0.9-4.4c0.3-1.5,0.6-2.9,1-4.2
		c0.3-1.3,0.7-2.5,1-3.4c0.3-1.1,0.6-2.1,0.8-3c0.2-1,0.5-1.9,0.8-3c0.3-1,0.5-2.2,0.8-3.4c0.3-1.2,0.6-2.7,1.1-4.3
		c0.1-1.2,0.4-2.3,0.6-3.3C169.7,9.2,169.9,8.7,170.1,8.5z M172.9,22.8c0-0.8-0.1-1.6-0.2-2.4c-0.1-0.8-0.2-1.5-0.2-2
		c0-0.3-0.1-0.6-0.3-0.9c-0.1,0-0.2,0.4-0.5,1.2s-0.4,1.7-0.7,2.7s-0.4,2-0.6,2.9c-0.2,1-0.3,1.6-0.4,2c0,0.5,0.1,0.8,0.2,0.8
		c0.1,0.1,0.6,0.1,1.4,0.1c0.8,0.2,1.2,0.2,1.4,0.2s0.2-0.3,0.2-0.8c0-0.3-0.1-0.8-0.2-1.5C173,24.4,172.9,23.6,172.9,22.8z
		 M205.1,7.6c0.1,0,0.2,0,0.6,0c0.3,0,0.8-0.1,1.5-0.2c0.7-0.1,1.7-0.2,2.9-0.3s2.8-0.2,4.6-0.4c0.3,0,1,0,2.1,0s2.2,0,3.5,0
		c1.1-0.1,2-0.1,2.7-0.1c0.6,0,1.1,0.1,1.4,0.3s0.4,0.4,0.5,0.8s0.1,0.8,0.1,1.5c0,0.6,0,1-0.1,1.3s-0.2,0.5-0.4,0.7
		c-0.2,0.2-0.6,0.3-1.1,0.3c-0.5,0.1-1.2,0.1-2.1,0.2c-0.8,0.1-1.4,0.2-1.8,0.3s-0.7,0.4-0.9,0.8c-0.2,0.4-0.4,1.1-0.4,1.9
		s-0.1,2.1-0.2,3.8c-0.1,0.9-0.2,2.1-0.2,3.5c-0.1,1.4-0.1,2.8-0.1,4.4c0,1.6,0,3.2,0,4.8s0,3.2,0,4.7c0,3.9,0,6.6,0,8.2
		s-0.1,2.5-0.3,2.6c-0.1,0.2-0.3,0.3-0.7,0.4s-0.8,0.2-1.3,0.2c-0.5,0.1-0.9,0.1-1.4,0.1s-0.8-0.1-1-0.1c-0.1-0.1-0.2-0.3-0.2-0.7
		c-0.1-0.4-0.1-1.2-0.1-2.4s0-2.9,0-5c0-2.2,0-5,0-8.6c0-2.2,0-4.2,0-6.3c0-2,0.1-3.8,0.1-5.4s0.1-2.9,0.1-3.9s0.1-1.6,0.1-1.8
		c0.1-0.3,0.1-0.5,0.1-0.7s-0.1-0.3-0.3-0.3s-0.6-0.1-1.1,0s-1.2,0.1-2.1,0.1c-1.1,0.1-1.9,0.1-2.5,0.1c-0.6,0-1-0.1-1.3-0.3
		s-0.5-0.4-0.6-0.8c-0.1-0.4-0.2-0.9-0.2-1.5c-0.2-0.8-0.2-1.3-0.1-1.5C204.7,8,204.9,7.8,205.1,7.6z M185.5,8.2
		c0.2-0.3,0.4-0.6,0.8-0.9s0.6-0.4,0.8-0.4c0.3-0.1,0.9-0.1,1.8-0.1c0.9,0,1.8,0,2.8,0.1c1,0,1.9,0.1,2.8,0.2
		c0.9,0.1,1.5,0.1,1.8,0.2c1.5,0.3,2.7,1.1,3.8,2.3c1,1.2,1.6,2.5,1.8,4c0.1,0.4,0.1,0.9,0,1.5s-0.2,1.2-0.4,1.9s-0.4,1.3-0.6,1.9
		c-0.2,0.6-0.5,1.1-0.7,1.5c-0.3,0.5-0.9,1.1-1.6,1.7c-0.7,0.6-1.5,1.1-2.3,1.6c-0.2,0.2-0.2,0.4-0.1,0.6c0.1,0.2,0.4,0.7,1.1,1.3
		c0.3,0.3,0.7,0.8,1.1,1.4s0.7,1.1,0.9,1.6c0.3,0.6,0.6,1.5,0.9,2.7c0.3,1.2,0.6,2.6,0.9,4.1s0.5,3.1,0.7,4.7
		c0.2,1.6,0.3,3.1,0.4,4.5c0,0.7,0,1.3,0,1.7c0,0.4-0.1,0.7-0.2,0.9c-0.1,0.2-0.3,0.3-0.6,0.3s-0.6,0-1.1,0c-0.6,0.1-1,0.1-1.4,0.1
		s-0.6-0.2-0.8-0.6c-0.2-0.4-0.3-1-0.4-1.9s-0.2-2.2-0.4-3.8c-0.3-2.2-0.5-4.1-0.8-5.6s-0.6-2.8-0.9-3.9s-0.8-2-1.3-2.8
		c-0.5-0.8-1.1-1.5-1.9-2.1c-0.8-0.8-1.4-1.3-1.9-1.3c-0.4-0.1-0.8,0-1.1,0.4c-0.2,0.2-0.3,1.1-0.4,2.8c-0.1,1.7-0.2,4.1-0.2,7.4
		c0,2.4,0,4.3,0,5.7s-0.1,2.3-0.2,2.9c-0.1,0.6-0.3,1-0.6,1.1s-0.6,0.1-1.1,0.1c-0.5,0-0.9,0-1.2,0s-0.5-0.1-0.6-0.2
		c-0.1-0.1-0.2-0.3-0.3-0.6c-0.1-0.3-0.1-0.7-0.2-1.2c0-0.2,0-0.9,0-2c0-1.1,0-2.4,0-4.1c0-1.7,0-3.5,0-5.6c0-2.1,0-4.3,0-6.6
		c0-4,0-7.1,0-9.3s0-3.8,0.1-4.9s0.1-1.8,0.3-2.1C185.1,8.9,185.2,8.5,185.5,8.2z M197.3,13.4c-0.2-0.3-0.4-0.6-0.6-0.8
		s-0.6-0.5-1.1-0.8c-0.3-0.1-0.8-0.2-1.5-0.2c-0.7-0.1-1.3-0.1-2-0.2s-1.3-0.1-1.9-0.1c-0.6,0-0.9,0-1.1,0.1c0,0.2,0,0.6,0,1.4
		s0,1.7,0,2.8c0,1.2,0,2.2,0,2.8s0.1,1.1,0.3,1.4c0.2,0.3,0.4,0.4,0.8,0.3s0.9-0.2,1.5-0.3c1-0.2,1.9-0.5,2.8-0.9
		c0.9-0.4,1.5-0.9,1.8-1.4c0.1-0.2,0.3-0.4,0.4-0.8s0.2-0.8,0.3-1.2c0.1-0.4,0.1-0.8,0.2-1.3C197.3,14,197.3,13.7,197.3,13.4z
		 M228.9,13.9c0.3-1.7,0.9-3.2,1.7-4.3c0.8-1.1,1.9-1.9,3.4-2.4c0.5-0.3,1.3-0.5,2.5-0.5s2.4,0.2,3.5,0.5c1.3,0.3,2,0.7,2.3,1.1
		c0.2,0.4,0.1,1.1-0.3,2c-0.5,0.8-0.9,1.3-1.4,1.5c-0.4,0.2-1,0.1-1.8-0.2c-0.6-0.2-1.3-0.2-1.9-0.2s-1.2,0.2-1.6,0.5
		c-0.2,0.1-0.5,0.3-0.8,0.6s-0.5,0.6-0.7,1c-0.2,0.4-0.4,0.8-0.5,1.3s-0.2,0.9-0.2,1.3c0,1,0.5,2.2,1.5,3.8c1,1.6,2.2,3,3.6,4.5
		c0.3,0.3,0.8,0.8,1.3,1.5s1.2,1.3,1.8,2c0.6,0.9,1.1,1.7,1.6,2.5c0.4,0.8,0.8,1.5,1,2.3c0.2,0.8,0.4,1.6,0.5,2.5
		c0.1,0.9,0.1,1.8,0,2.9c0,1.9-0.2,3.4-0.7,4.5s-1.2,2-2.1,2.8c-0.3,0.3-0.8,0.7-1.4,0.9s-1.2,0.5-1.9,0.7c-0.7,0.2-1.4,0.4-2.1,0.6
		s-1.3,0.2-1.9,0.3c-0.3,0-0.8-0.1-1.2-0.2c-0.5-0.1-1-0.2-1.5-0.4c-0.5-0.2-1-0.4-1.4-0.6s-0.8-0.5-1-0.7c-0.2-0.2-0.5-0.4-0.8-0.8
		s-0.6-0.7-0.8-1.1c-0.2-0.4-0.4-0.8-0.6-1.1s-0.1-0.6-0.1-0.8c0.1-0.2,0.3-0.4,0.8-0.6c0.5-0.2,1-0.2,1.5-0.3c0.5,0,1,0,1.4,0.1
		s0.6,0.2,0.5,0.5c0,0.1,0.1,0.2,0.4,0.3c0.2,0.1,0.5,0.2,0.9,0.3s0.8,0.2,1.2,0.2s0.9,0.1,1.3,0.1c0.6,0.2,1.3,0.1,2-0.3
		s1.3-0.7,1.8-1c0.8-0.8,1.2-1.9,1.3-3.5c0.1-1.5-0.2-3-0.6-4.4c-0.2-0.2-0.5-0.7-1-1.3s-1-1.3-1.6-2.1c-0.6-0.7-1.2-1.4-1.8-2.1
		c-0.6-0.7-1-1.2-1.3-1.5c-0.2-0.2-0.5-0.5-0.9-1c-0.3-0.4-0.7-0.8-1-1.3s-0.7-0.9-0.9-1.3c-0.3-0.4-0.5-0.8-0.7-1.2
		c-0.8-1.4-1.3-2.7-1.5-3.8C228.5,16.8,228.6,15.5,228.9,13.9z"/>
</g>
<g id="Capa_2">
	<path id="contorno" class="st1" d="M119.2,51l9.3-44.4l10.8-2.5 M128.8,5l-12.8,46.2 M153.1,44.4C150.4,23.9,139.5,6,139.5,6
		 M139.5,9c0,0-5.8-2.5-12.6,0.2 M136.8,14.8l2.2,13.5 M130.8,16.5l0.7,14.6 M127.8,18.1c0,0,6.2,2.3,10-3.1 M129.3,26.4
		c0,0,7.9,4.2,13-0.3 M139.8,35.2l3.8,11.1l7.3-0.2 M156.9,41.6l-14.1,2.2 M150.9,44.6l-6.1,0.2 M131,38.1
		c6.8,2.5,11.1-0.5,11.1-0.5 M137.5,35.6l-6.6,0.7 M135.2,47.2c0,0-6-3.2-18.6,2.2 M117.2,49.9l13.6-1 M131.8,35.9L128.2,49
		 M134.3,34.4L129.5,51"/>
</g>
</svg>
