<?xml version="1.0" encoding="utf-8"?>
<!-- Generator: Adobe Illustrator 23.0.2, SVG Export Plug-In . SVG Version: 6.00 Build 0)  -->
<svg version="1.1" id="Capa_1" xmlns="http://www.w3.org/2000/svg" xmlns:xlink="http://www.w3.org/1999/xlink" x="0px" y="0px"
	 viewBox="0 0 194 24" style="enable-background:new 0 0 194 24;" xml:space="preserve">
<style type="text/css">
	.st0{fill:#FFFFFF;}
	.st1{fill:#CCCCCC;}
	.st2{fill:#B3B3B3;}
</style>
<path id="texto" class="st0" d="M146.351,14.587c-0.022,2.41-1.964,4.351-4.374,4.351c-2.41-0.022-4.351-1.964-4.351-4.374
	c0.022-2.41,1.964-4.351,4.374-4.351C144.41,10.214,146.351,12.177,146.351,14.587z M144.745,14.565
	c0-1.517-1.205-2.745-2.745-2.767c-1.517,0-2.767,1.205-2.767,2.745c-0.022,1.517,1.205,2.745,2.745,2.767
	C143.495,17.332,144.745,16.105,144.745,14.565z M111.385,17.31c1.517,0,2.745-1.205,2.767-2.722c0-0.022,0-0.245,0-0.335
	c0.134-2.276,2.031-4.083,4.351-4.083v1.629c-1.495,0.022-2.722,1.205-2.745,2.7c0,0.022,0,0.223,0,0.29
	c-0.134,2.276-2.031,4.106-4.351,4.106L111.385,17.31z M131.892,8.116L131.892,8.116 M131.892,8.116l0.089,0.089h0.022
	c1.741,1.584,4.396,1.517,6.047-0.156l-1.138-1.116c-1.071,1.093-2.812,1.093-3.883,0.045l-0.089-0.089h-0.022
	c-1.741-1.584-4.396-1.517-6.047,0.156l1.138,1.116C129.058,7.067,130.798,7.067,131.892,8.116z M132.472,10.191
	c-2.41,0-4.351,1.941-4.374,4.351v3.57h1.629v-3.57c0-1.517,1.227-2.767,2.767-2.767c1.517,0,2.767,1.227,2.767,2.767v3.57h1.629
	v-3.57C136.823,12.155,134.86,10.191,132.472,10.191z M107.882,14.61v-3.615h-1.629v3.615c0.045,2.388,1.964,4.307,4.351,4.307
	v-1.629C109.154,17.31,107.904,16.127,107.882,14.61z M108.239,7.402c0-0.647-0.513-1.16-1.16-1.16s-1.16,0.513-1.16,1.16
	c0,0.647,0.513,1.16,1.16,1.16S108.239,8.049,108.239,7.402z M122.921,10.214c-2.41,0-4.351,1.941-4.351,4.351
	s1.941,4.351,4.351,4.351v-1.584h-0.022c-1.517,0-2.767-1.227-2.767-2.767c0-1.517,1.227-2.767,2.767-2.767
	c1.25,0,2.298,0.826,2.633,1.941h-2.611v1.651h4.351v-0.803C127.273,12.177,125.331,10.214,122.921,10.214z M97.059,3.118h-7.877
	v7.877h1.629V4.769l0,0h6.248c3.459,0.067,6.181,2.923,6.114,6.382c-0.067,3.347-2.789,6.069-6.136,6.114v1.584
	c4.329,0,7.877-3.503,7.877-7.855C104.914,6.666,101.411,3.118,97.059,3.118z"/>
<path id="izotipo" class="st1" d="M12.242,8.067h3.95v3.95h-3.95V8.067z M20.297,12.062c0,4.396-3.57,7.966-7.966,7.966
	s-7.966-3.57-7.966-7.966c0-4.374,3.526-7.944,7.922-7.966V0.101C5.659,0.124,0.326,5.524,0.371,12.129
	C0.415,18.711,5.793,24.044,12.376,24c6.56-0.045,11.871-5.378,11.871-11.938C24.247,12.062,20.297,12.062,20.297,12.062z"/>
<g>
	<path class="st0" d="M45.815,19.805h-1.147c-0.171-0.7-0.452-1.326-0.842-1.881c-0.619,0.644-1.327,1.197-2.124,1.66
		c-0.798,0.465-1.876,0.696-3.235,0.696c-1.489,0-2.871-0.362-4.145-1.087c-1.273-0.724-2.289-1.734-3.045-3.033
		c-0.757-1.298-1.135-2.76-1.135-4.388c0-1.155,0.206-2.258,0.616-3.308c0.411-1.05,0.997-1.973,1.758-2.771
		c0.761-0.797,1.668-1.424,2.723-1.88c1.054-0.456,2.207-0.684,3.46-0.684c2.067,0,3.776,0.676,5.127,2.026
		c0.179-0.35,0.354-0.858,0.525-1.526h1.099l0.195,6.091h-1.172c-0.212-1.033-0.594-1.953-1.147-2.759
		c-0.554-0.806-1.21-1.422-1.972-1.85c-0.761-0.427-1.556-0.641-2.386-0.641c-0.928,0-1.762,0.254-2.502,0.763
		c-0.741,0.509-1.32,1.284-1.739,2.326c-0.419,1.042-0.629,2.34-0.629,3.894c0,1.514,0.175,2.773,0.525,3.778
		c0.35,1.006,0.783,1.764,1.3,2.277c0.517,0.512,1.035,0.859,1.556,1.043c0.521,0.184,1.009,0.275,1.465,0.275
		c1.001,0,1.902-0.27,2.704-0.807c0.802-0.537,1.459-1.215,1.972-2.031c0.513-0.818,0.854-1.631,1.025-2.436h1.172V19.805z"/>
	<path class="st2" d="M50.713,9.709C50.347,8.92,50.164,8.183,50.164,7.5c0-0.773,0.228-1.491,0.684-2.154
		c0.456-0.664,1.036-1.198,1.74-1.605c0.704-0.407,1.434-0.61,2.191-0.61c0.846,0,1.552,0.234,2.118,0.702
		c0.566,0.468,0.849,1.027,0.849,1.678c0,0.488-0.136,0.94-0.409,1.355c-0.272,0.415-0.56,0.623-0.86,0.623
		c-0.146,0-0.22-0.077-0.22-0.232c0-0.057,0.041-0.183,0.122-0.378c0.13-0.317,0.195-0.639,0.195-0.964
		c0-0.488-0.2-0.885-0.598-1.19c-0.399-0.305-0.879-0.458-1.44-0.458c-0.903,0-1.748,0.373-2.533,1.117
		c-0.786,0.745-1.178,1.598-1.178,2.558c0,0.432,0.057,0.795,0.171,1.093c0.114,0.297,0.218,0.49,0.311,0.58
		c0.094,0.09,0.226,0.134,0.397,0.134c1.123,0,1.685,0.326,1.685,0.977c0,0.163-0.059,0.317-0.177,0.464
		c-0.118,0.146-0.291,0.22-0.519,0.22c-0.252,0-0.574-0.167-0.964-0.5c-0.415-0.358-0.822-0.537-1.221-0.537
		c-0.513,0-0.999,0.254-1.458,0.763c-0.46,0.508-0.69,1.113-0.69,1.812c0,1.359,0.675,2.642,2.026,3.851
		c1.351,1.209,3.031,1.812,5.042,1.812c1.904,0,3.534-0.474,4.889-1.422c1.355-0.947,2.033-2.081,2.033-3.399
		c0-0.879-0.334-1.642-1.001-2.289c-0.667-0.647-1.571-0.971-2.71-0.971c-0.92,0-1.74,0.252-2.459,0.757
		c-0.721,0.505-1.081,1.135-1.081,1.892c0,0.456,0.13,0.83,0.391,1.123c0.26,0.293,0.529,0.439,0.806,0.439
		c0.317,0,0.476-0.171,0.476-0.513l-0.012-0.146c-0.008-0.105-0.012-0.179-0.012-0.22c0-0.357,0.098-0.652,0.293-0.885
		c0.195-0.231,0.443-0.348,0.745-0.348c0.285,0,0.533,0.1,0.745,0.299c0.211,0.2,0.317,0.479,0.317,0.836
		c0,0.513-0.177,0.939-0.531,1.281c-0.354,0.342-0.808,0.514-1.361,0.514c-0.659,0-1.227-0.234-1.703-0.703
		c-0.477-0.467-0.714-1.043-0.714-1.727c0-1.001,0.419-1.912,1.257-2.734c0.838-0.822,2.36-1.233,4.565-1.233
		c1.978,0,3.414-0.272,4.309-0.818c0.895-0.537,1.343-1.355,1.343-2.454c0-0.651-0.2-1.186-0.598-1.605
		c-0.399-0.419-0.903-0.628-1.514-0.628c-0.301,0-0.527,0.042-0.678,0.128C63.068,3.868,62.993,4,62.993,4.179
		c0,0.114,0.073,0.277,0.22,0.488c0.187,0.269,0.281,0.529,0.281,0.781c0,0.301-0.116,0.566-0.348,0.793
		c-0.231,0.228-0.519,0.342-0.86,0.342c-0.407,0-0.716-0.13-0.928-0.391c-0.212-0.26-0.317-0.565-0.317-0.916
		c0-0.553,0.271-1.05,0.812-1.489c0.542-0.439,1.231-0.659,2.069-0.659c0.862,0,1.581,0.315,2.154,0.946
		c0.574,0.63,0.861,1.39,0.861,2.276c0,0.838-0.246,1.604-0.739,2.295c-0.492,0.692-1.115,1.18-1.867,1.465
		c-0.753,0.285-1.809,0.452-3.168,0.5c1.302,0.92,1.953,2.1,1.953,3.54c0,1.082-0.399,2.129-1.196,3.137
		c-0.798,1.01-1.764,1.758-2.899,2.246c-1.135,0.488-2.521,0.732-4.156,0.732c-1.327,0-2.401-0.145-3.223-0.434
		c-0.822-0.288-1.605-0.709-2.35-1.263c-0.745-0.554-1.331-1.231-1.758-2.032c-0.428-0.802-0.641-1.662-0.641-2.582
		c0-1.123,0.321-2.067,0.964-2.832C48.499,10.36,49.451,9.888,50.713,9.709z"/>
	<path class="st0" d="M82.93,13.444c-0.472,0.049-0.828,0.124-1.068,0.226c-0.24,0.102-0.405,0.277-0.495,0.525
		c-0.09,0.248-0.134,0.633-0.134,1.153v3.882c-1.18,0-2.458,0.154-3.833,0.464c-0.993,0.22-1.738,0.372-2.234,0.458
		c-0.497,0.086-1.083,0.128-1.758,0.128c-1.791,0-3.325-0.419-4.602-1.257c-1.278-0.838-2.236-1.917-2.875-3.235
		c-0.639-1.318-0.958-2.673-0.958-4.065c0-1.595,0.378-3.05,1.135-4.364c0.757-1.314,1.782-2.348,3.076-3.101
		c1.294-0.752,2.71-1.129,4.248-1.129c1.872,0,3.577,0.647,5.115,1.941c0.187-0.35,0.337-0.83,0.452-1.44h1.184l0.122,5.42h-1.123
		c-0.171-0.822-0.493-1.575-0.964-2.258c-0.472-0.684-1.06-1.225-1.764-1.624C75.75,4.77,74.975,4.57,74.128,4.57
		c-0.619,0-1.225,0.108-1.819,0.323c-0.594,0.216-1.149,0.59-1.667,1.123c-0.517,0.533-0.932,1.26-1.245,2.179
		c-0.313,0.92-0.47,2.055-0.47,3.406c0,1.156,0.122,2.266,0.366,3.333s0.74,1.982,1.489,2.746c0.749,0.766,1.807,1.148,3.174,1.148
		c1.074,0,1.888-0.17,2.441-0.508c0.553-0.337,0.914-0.75,1.08-1.238c0.167-0.488,0.25-1.033,0.25-1.636
		c0-0.569-0.042-0.984-0.128-1.245c-0.085-0.26-0.285-0.451-0.598-0.574c-0.313-0.121-0.796-0.183-1.447-0.183v-1.123h7.373V13.444z
		"/>
</g>
<g>
</g>
<g>
</g>
<g>
</g>
<g>
</g>
<g>
</g>
<g>
</g>
<g>
</g>
<g>
</g>
<g>
</g>
<g>
</g>
<g>
</g>
<g>
</g>
<g>
</g>
<g>
</g>
<g>
</g>
</svg>
