<?xml version="1.0" encoding="utf-8"?>
<!-- Generator: Adobe Illustrator 23.0.2, SVG Export Plug-In . SVG Version: 6.00 Build 0)  -->
<svg version="1.1" id="Capa_1" xmlns="http://www.w3.org/2000/svg" xmlns:xlink="http://www.w3.org/1999/xlink" x="0px"
	y="0px" viewBox="0 0 400 120" style="enable-background:new 0 0 400 120;" xml:space="preserve">
	<style type="text/css">
		.st0 {
			fill: transparent;
			-webkit-animation: logo1 2s forwards 4.5s;
			-moz-animation: logo1 2s forwards 4.5s;
			-o-animation: logo1 2s forwards 4.5s;
			animation: logo1 2s forwards 4.5s;
		}

		.st1 {
			fill: transparent;
			-webkit-animation: texto1 2s forwards 2.5s;
			-moz-animation: texto1 2s forwards 2.5s;
			-o-animation: texto1 2s forwards 2.5s;
			animation: texto1 2s forwards 2.5s;
		}

		.st2 {
			fill: none;
			stroke: #fff;

			stroke-dasharray: 460;
			stroke-dashoffset: 460;
			stroke-miterlimit: 10;
			-webkit-animation: animacion 5s forwards;
			-moz-animation: animacion 5s forwards;
			-o-animation: animacion 5s forwards;
			animation: animacion 5s forwards;
		}

		@-webkit-keyframes animacion {
			0% {
				stroke-dashoffset: 460;
			}
			90% {
				stroke: #fff;
			}

			100% {
				stroke-dashoffset: 0;
				stroke: transparent;
			}
		}

		@-keyframes animacion {
			0% {
				stroke-dashoffset: 460;
			}
			90% {
				stroke: #fff;
			}

			100% {
				stroke-dashoffset: 0;
				stroke: transparent;
			}
		}

		@-webkit-keyframes logo1 {
			from {
				fill: transparent;
			}

			to {
				fill: #fff;
			}
		}

		@-keyframes logo1 {
			from {
				fill: transparent;
			}

			to {
				fill: #fff;
			}
		}

		@-webkit-keyframes texto1 {
			from {
				fill: transparent;
			}

			to {
				fill: #fff;
			}
		}

		@-keyframes texto1 {
			from {
				fill: transparent;
			}

			to {
				fill: #fff;
			}
		}
	</style>
	<path id="izotipo" class="st0" d="M57.93,41.745h17.699v17.699H57.93V41.745z M93.969,59.551c0,19.725-15.993,35.718-35.718,35.718
	S22.532,79.276,22.532,59.551c0-19.618,15.78-35.612,35.505-35.718V6.027C28.396,6.134,4.512,30.337,4.726,59.871
	c0.213,29.534,24.31,53.418,53.844,53.205c29.428-0.213,53.204-24.097,53.204-53.524H93.969z" />
	<path id="texto" class="st1" d="M394.536,75.438c-0.107,10.769-8.85,19.512-19.618,19.512c-10.769-0.107-19.512-8.85-19.512-19.619
	c0.107-10.769,8.85-19.512,19.618-19.512C385.794,55.82,394.536,64.563,394.536,75.438z M387.286,75.331
	c0-6.824-5.438-12.262-12.262-12.368c-6.824,0-12.368,5.438-12.368,12.262c-0.107,6.824,5.438,12.262,12.262,12.368
	C381.742,87.7,387.286,82.155,387.286,75.331z M237.802,87.593c6.762,0,12.267-5.444,12.367-12.182
	c0.001-0.062,0.013-1.071,0.036-1.456c0.603-10.228,9.099-18.349,19.478-18.349v7.25c-6.651,0.106-12.153,5.438-12.26,12.168
	c-0.001,0.067-0.012,0.952-0.034,1.324c-0.583,10.247-9.088,18.388-19.48,18.388L237.802,87.593z M329.71,46.437
	c-0.027,0-0.04,0-0.045,0 M329.71,46.437l0.427,0.427h0.107c7.783,7.144,19.725,6.824,27.082-0.746l-5.118-5.011
	c-4.798,4.905-12.581,4.905-17.379,0.213l-0.427-0.427h-0.107c-7.783-7.144-19.725-6.824-27.082,0.746l5.118,5.011
	C317.022,41.745,324.806,41.745,329.71,46.437z M332.269,55.713c-10.769,0-19.512,8.743-19.618,19.512v15.993h7.25V75.225
	c0-6.824,5.544-12.368,12.368-12.368c6.824,0,12.368,5.544,12.368,12.368v15.993h7.25V75.225
	C351.781,64.456,343.038,55.713,332.269,55.713z M222.128,75.545V59.338h-7.25v16.207c0.213,10.662,8.85,19.299,19.512,19.299v-7.25
	C227.779,87.593,222.235,82.262,222.128,75.545z M223.728,43.238c0-2.879-2.346-5.225-5.225-5.225s-5.224,2.346-5.224,5.225
	c0,2.879,2.346,5.225,5.224,5.225S223.728,46.117,223.728,43.238z M289.514,55.82c-10.769,0-19.512,8.743-19.512,19.512
	c0,10.769,8.743,19.512,19.512,19.512V87.7h-0.107c-6.824,0-12.368-5.544-12.368-12.368c0-6.824,5.544-12.368,12.368-12.368
	c5.562,0,10.272,3.685,11.825,8.743h-11.718v7.25h19.512v-3.625C309.026,64.563,300.283,55.82,289.514,55.82z M173.615,24.046
	h-35.292v35.292h7.25V31.407l0.005-0.004h28.037c15.46,0.32,27.722,13.115,27.402,28.575c-0.32,15.034-12.475,27.189-27.509,27.402
	v7.144c19.405,0,35.292-15.673,35.292-35.185C208.801,39.933,193.127,24.046,173.615,24.046z" />
	<path id="borde" class="st2" d="M57.93,41.745h17.699v17.699H57.93V41.745z M93.969,59.551c0,19.725-15.993,35.718-35.718,35.718
	S22.532,79.276,22.532,59.551c0-19.618,15.78-35.612,35.505-35.718V6.027C28.396,6.134,4.512,30.337,4.726,59.871
	c0.213,29.534,24.31,53.418,53.844,53.205c29.428-0.213,53.204-24.097,53.204-53.524H93.969z M394.536,75.438
	c-0.107,10.769-8.85,19.512-19.618,19.512c-10.769-0.107-19.512-8.85-19.512-19.619c0.107-10.769,8.85-19.512,19.618-19.512
	C385.794,55.82,394.536,64.563,394.536,75.438z M387.286,75.331c0-6.824-5.438-12.262-12.262-12.368
	c-6.824,0-12.368,5.438-12.368,12.262c-0.107,6.824,5.438,12.262,12.262,12.368C381.742,87.7,387.286,82.155,387.286,75.331z
	 M237.802,87.593c6.762,0,12.267-5.444,12.367-12.182c0.001-0.062,0.013-1.071,0.036-1.456c0.603-10.228,9.099-18.349,19.478-18.349
	v7.25c-6.651,0.106-12.153,5.438-12.26,12.168c-0.001,0.067-0.012,0.952-0.034,1.324c-0.583,10.247-9.088,18.388-19.48,18.388
	L237.802,87.593z M329.71,46.437c-0.027,0-0.04,0-0.045,0 M329.71,46.437l0.427,0.427h0.107c7.783,7.144,19.725,6.824,27.082-0.746
	l-5.118-5.011c-4.798,4.905-12.581,4.905-17.379,0.213l-0.427-0.427h-0.107c-7.783-7.144-19.725-6.824-27.082,0.746l5.118,5.011
	C317.022,41.745,324.806,41.745,329.71,46.437z M332.269,55.713c-10.769,0-19.512,8.743-19.618,19.512v15.993h7.25V75.225
	c0-6.824,5.544-12.368,12.368-12.368c6.824,0,12.368,5.544,12.368,12.368v15.993h7.25V75.225
	C351.781,64.456,343.038,55.713,332.269,55.713z M222.128,75.545V59.338h-7.25v16.207c0.213,10.662,8.85,19.299,19.512,19.299v-7.25
	C227.779,87.593,222.235,82.262,222.128,75.545z M223.728,43.238c0-2.879-2.346-5.225-5.225-5.225s-5.224,2.346-5.224,5.225
	c0,2.879,2.346,5.225,5.224,5.225S223.728,46.117,223.728,43.238z M289.514,55.82c-10.769,0-19.512,8.743-19.512,19.512
	c0,10.769,8.743,19.512,19.512,19.512V87.7h-0.107c-6.824,0-12.368-5.544-12.368-12.368c0-6.824,5.544-12.368,12.368-12.368
	c5.562,0,10.272,3.685,11.825,8.743h-11.718v7.25h19.512v-3.625C309.026,64.563,300.283,55.82,289.514,55.82z M173.615,24.046
	h-35.292v35.292h7.25V31.407l0.005-0.004h28.037c15.46,0.32,27.722,13.115,27.402,28.575c-0.32,15.034-12.475,27.189-27.509,27.402
	v7.144c19.405,0,35.292-15.673,35.292-35.185C208.801,39.933,193.127,24.046,173.615,24.046z" />
</svg>